<svg width="40" height="40" viewBox="0 0 40 40" fill="none" xmlns="http://www.w3.org/2000/svg">
<circle cx="20" cy="20" r="20" fill="white"/>
<g clip-path="url(#clip0)">
<path d="M11.0382 16.0148C8.81194 14.3729 8.13149 11.6215 9.89917 9.83904C11.6817 8.08615 14.5588 8.68524 16.2599 11.2369L11.0382 16.0148Z" fill="#005C42"/>
<path d="M29.1885 16.0145C31.4147 14.3725 32.0952 11.6212 30.3275 9.83867C28.545 8.08578 25.6679 8.68487 23.9668 11.2366L29.1885 16.0145Z" fill="#005C42"/>
<path d="M31.3336 22.8559C31.3336 29.0539 26.3116 31.2728 20.1136 31.2728C13.9156 31.2728 8.89355 29.0539 8.89355 22.8559C8.89355 16.6579 13.9156 10.238 20.1136 10.238C26.3116 10.238 31.3336 16.6579 31.3336 22.8559Z" fill="#005C42"/>
<path d="M31.3333 22.8559C31.3333 29.0539 26.3113 31.2728 20.1133 31.2728V10.238C26.3113 10.238 31.3333 16.6579 31.3333 22.8559Z" fill="#005C42"/>
</g>
<path d="M19.4039 23.864L20.8279 23.384C20.6039 23.224 20.4759 22.92 20.4759 22.664C20.4759 21.24 23.3239 21.048 23.3239 18.68C23.3239 17.24 22.0919 16.168 20.0759 16.168C18.6359 16.168 17.4039 16.744 16.5879 17.752L17.6759 18.952C18.2039 18.264 18.9079 17.832 19.8999 17.832C20.9239 17.832 21.4199 18.36 21.4199 18.984C21.4199 20.344 18.8439 20.536 18.8439 22.488C18.8439 23.016 19.0199 23.496 19.4039 23.864ZM19.9799 27.176C20.5879 27.176 21.0999 26.648 21.0999 26.04C21.0999 25.448 20.5879 24.936 19.9799 24.936C19.3719 24.936 18.8599 25.448 18.8599 26.04C18.8599 26.648 19.3719 27.176 19.9799 27.176Z" fill="white"/>
<defs>
<clipPath id="clip0">
<rect width="22.44" height="22.44" fill="white" transform="translate(8.89355 8.83276)"/>
</clipPath>
</defs>
</svg>
