<svg width="11" height="11" viewBox="0 0 11 11" fill="none" xmlns="http://www.w3.org/2000/svg">
<path d="M10.672 1.74231C11.0625 1.35178 11.0625 0.71862 10.672 0.328095C10.2814 -0.0624291 9.64826 -0.0624291 9.25774 0.328095L10.672 1.74231ZM5.50056 5.49949L4.79345 4.79238C4.40293 5.1829 4.40293 5.81607 4.79345 6.20659L5.50056 5.49949ZM9.25774 10.6709C9.64826 11.0614 10.2814 11.0614 10.672 10.6709C11.0625 10.2804 11.0625 9.64719 10.672 9.25667L9.25774 10.6709ZM9.25774 0.328095L4.79345 4.79238L6.20767 6.20659L10.672 1.74231L9.25774 0.328095ZM4.79345 6.20659L9.25774 10.6709L10.672 9.25667L6.20767 4.79238L4.79345 6.20659Z" fill="#333333"/>
<path d="M0.327561 9.25682C-0.0629631 9.64735 -0.0629631 10.2805 0.327561 10.671C0.718085 11.0616 1.35125 11.0616 1.74177 10.671L0.327561 9.25682ZM5.49895 5.49964L6.20606 6.20675C6.59658 5.81623 6.59658 5.18306 6.20606 4.79254L5.49895 5.49964ZM1.74177 0.328252C1.35125 -0.062273 0.718086 -0.062273 0.327561 0.328252C-0.062963 0.718776 -0.062963 1.35194 0.327561 1.74247L1.74177 0.328252ZM1.74177 10.671L6.20606 6.20675L4.79185 4.79254L0.327561 9.25682L1.74177 10.671ZM6.20606 4.79254L1.74177 0.328252L0.327561 1.74247L4.79185 6.20675L6.20606 4.79254Z" fill="#333333"/>
</svg>
