<svg width="57" height="57" viewBox="0 0 57 57" fill="none" xmlns="http://www.w3.org/2000/svg">
<circle cx="28.2878" cy="28.2878" r="28.2878" fill="#005C42"/>
<path fill-rule="evenodd" clip-rule="evenodd" d="M22.845 34.4503V28.4963L28.7115 33.2771L28.7131 33.2753L34.5784 28.6668V34.4503C34.5784 36.0703 35.8917 37.3835 37.5117 37.3835C39.1316 37.3835 40.4449 36.0703 40.4449 34.4503V22.7174C40.4449 21.0974 39.1316 19.7841 37.5117 19.7841C36.8387 19.7841 36.2187 20.0108 35.7237 20.3919C35.4901 20.5097 35.268 20.6614 35.0643 20.8477L29.0006 26.392L21.9811 20.355C20.9758 19.4903 19.534 19.4354 18.4754 20.1593C17.582 20.662 16.9785 21.6192 16.9785 22.7174V34.4503C16.9785 36.0703 18.2918 37.3835 19.9117 37.3835C21.5317 37.3835 22.845 36.0703 22.845 34.4503Z" fill="white"/>
</svg>
