<svg width="57" height="57" viewBox="0 0 57 57" fill="none" xmlns="http://www.w3.org/2000/svg">
<circle cx="28.2878" cy="28.2878" r="28.2878" fill="#005C42"/>
<path d="M43.7357 18.9602L34.6374 28L43.7357 37.0398C43.9002 36.696 44 36.316 44 35.9102V20.0898C44 19.684 43.9002 19.304 43.7357 18.9602Z" fill="white"/>
<path d="M41.3633 17.4531H16.6367C16.2308 17.4531 15.8508 17.5529 15.5071 17.7174L27.1358 29.2875C28.164 30.3157 29.836 30.3157 30.8642 29.2875L42.4929 17.7174C42.1491 17.5529 41.7691 17.4531 41.3633 17.4531Z" fill="white"/>
<path d="M14.2643 18.9602C14.0998 19.304 14 19.684 14 20.0898V35.9102C14 36.316 14.0998 36.6961 14.2643 37.0398L23.3626 28L14.2643 18.9602Z" fill="white"/>
<path d="M33.3945 29.2427L32.107 30.5302C30.3938 32.2434 27.6061 32.2434 25.8929 30.5302L24.6055 29.2427L15.5071 38.2825C15.8508 38.4469 16.2308 38.5467 16.6367 38.5467H41.3633C41.7691 38.5467 42.1491 38.4469 42.4929 38.2825L33.3945 29.2427Z" fill="white"/>
</svg>
