<svg width="58" height="57" viewBox="0 0 58 57" fill="none" xmlns="http://www.w3.org/2000/svg">
<path d="M28.7962 2.80446e-05C13.1732 2.66788e-05 0.508335 12.6649 0.508334 28.2879C0.508332 43.9108 13.1732 56.5757 28.7962 56.5757C44.4191 56.5757 57.084 43.9108 57.084 28.2879C57.084 12.6649 44.4191 2.94104e-05 28.7962 2.80446e-05Z" fill="#005C42"/>
<mask id="mask0" mask-type="alpha" maskUnits="userSpaceOnUse" x="0" y="0" width="58" height="57">
<path d="M28.7947 2.80446e-05C13.1718 2.66788e-05 0.50687 12.6649 0.506869 28.2879C0.506868 43.9108 13.1718 56.5757 28.7947 56.5757C44.4176 56.5757 57.0825 43.9108 57.0825 28.2879C57.0825 12.6649 44.4176 2.94104e-05 28.7947 2.80446e-05Z" fill="#005C42"/>
</mask>
<g mask="url(#mask0)">
<path d="M38.0099 33.5517H31.632V57.789H21.9689V33.5517H17.373V25.0338H21.9689V19.5218C21.9689 15.58 23.7739 9.40771 31.718 9.40771L38.8758 9.43878V17.7069H33.6824C32.8305 17.7069 31.6326 18.1484 31.6326 20.0287V25.0417H38.8542L38.0099 33.5517Z" fill="white"/>
</g>
</svg>
