<svg width="58" height="57" viewBox="0 0 58 57" fill="none" xmlns="http://www.w3.org/2000/svg">
<path d="M29.2605 56.5757C44.8834 56.5757 57.5483 43.9108 57.5483 28.2878C57.5483 12.6649 44.8834 0 29.2605 0C13.6375 0 0.972656 12.6649 0.972656 28.2878C0.972656 43.9108 13.6375 56.5757 29.2605 56.5757Z" fill="#005C42"/>
<path d="M46.5876 20.33C45.3754 20.8675 44.0714 21.2311 42.7038 21.3934C44.1001 20.5569 45.1717 19.2332 45.6774 17.6534C44.3709 18.4284 42.9232 18.9906 41.3837 19.2937C40.1503 17.9801 38.3929 17.1592 36.447 17.1592C32.7135 17.1592 29.6854 20.1872 29.6854 23.9208C29.6854 24.4507 29.7454 24.9666 29.8614 25.4618C24.242 25.1799 19.2594 22.4882 15.9242 18.3961C15.3423 19.3946 15.0085 20.5569 15.0085 21.7958C15.0085 24.1411 16.2031 26.2116 18.0164 27.4238C16.9085 27.389 15.8652 27.085 14.954 26.5772C14.9535 26.6059 14.9535 26.6347 14.9535 26.6629C14.9535 29.9391 17.2852 32.6716 20.3778 33.2924C19.8111 33.4477 19.2125 33.5299 18.5968 33.5299C18.1601 33.5299 17.737 33.488 17.3246 33.4094C18.1848 36.095 20.6814 38.0501 23.6409 38.105C21.3263 39.9188 18.4112 40.9995 15.2425 40.9995C14.6979 40.9995 14.1583 40.9677 13.6304 40.9047C16.6211 42.8239 20.1761 43.9428 23.9944 43.9428C36.4314 43.9428 43.2328 33.6398 43.2328 24.7039C43.2328 24.4109 43.2262 24.1189 43.2131 23.8295C44.5353 22.8764 45.6815 21.6859 46.5876 20.33Z" fill="#F1F2F2"/>
</svg>
