<svg width="57" height="57" viewBox="0 0 57 57" fill="none" xmlns="http://www.w3.org/2000/svg">
<path d="M0.0947266 56.26L4.05081 41.8135C1.61001 37.5858 0.326918 32.7892 0.328311 27.8764C0.334348 12.5054 12.8434 0 28.2131 0C35.673 0.00325071 42.6745 2.90657 47.9383 8.17593C53.2034 13.4453 56.1012 20.4496 56.0984 27.8983C56.0919 43.2698 43.5823 55.7766 28.2145 55.7766C28.2131 55.7766 28.215 55.7766 28.2145 55.7766H28.202C23.5354 55.7747 18.9496 54.6035 14.877 52.3838L0.0947266 56.26Z" fill="#005C42"/>
<path fill-rule="evenodd" clip-rule="evenodd" d="M20.998 15.7948C20.4575 14.593 19.8881 14.5688 19.3736 14.548C18.9529 14.5298 18.4713 14.5308 17.9907 14.5308C17.5096 14.5308 16.7275 14.7119 16.0663 15.434C15.4045 16.1561 13.5396 17.9022 13.5396 21.4533C13.5396 25.0049 16.1262 28.4363 16.487 28.9183C16.8478 29.3999 21.48 36.9201 28.8159 39.8132C34.9128 42.2178 36.1531 41.7394 37.4766 41.6192C38.8001 41.4989 41.7466 39.8731 42.348 38.1878C42.9499 36.5026 42.9499 35.0584 42.7692 34.756C42.5886 34.4556 42.1075 34.2749 41.3858 33.9141C40.6642 33.5533 37.1158 31.8067 36.4541 31.5662C35.7923 31.3252 35.3112 31.2054 34.8301 31.928C34.3486 32.6496 32.9665 34.2749 32.5454 34.756C32.1242 35.2385 31.703 35.2989 30.9813 34.9376C30.2597 34.5759 27.935 33.8143 25.1775 31.3554C23.032 29.4426 21.5831 27.0798 21.1619 26.3572C20.7412 25.6356 21.155 25.2789 21.4791 24.8847C22.0628 24.1746 23.0422 22.898 23.2828 22.4169C23.5233 21.9349 23.403 21.5137 23.2229 21.1524C23.0422 20.7916 21.6393 17.2223 20.998 15.7948Z" fill="white"/>
</svg>
